<svg width="377" height="330" viewBox="0 0 377 330" fill="none" xmlns="http://www.w3.org/2000/svg">
<path d="M188.5 329C188.5 329 1 224.636 1 97.9092C1.00382 75.5108 8.81224 53.805 23.0977 36.4822C37.3832 19.1594 57.2639 7.28885 79.3598 2.88878C101.456 -1.5113 124.403 1.8307 144.3 12.3466C164.197 22.8624 179.815 39.9031 188.5 60.5713L188.5 60.5714C197.185 39.9032 212.803 22.8625 232.7 12.3466C252.597 1.83074 275.544 -1.51128 297.64 2.88878C319.736 7.28884 339.617 19.1594 353.902 36.4822C368.188 53.805 375.996 75.5108 376 97.9092C376 224.636 188.5 329 188.5 329Z" stroke="white" stroke-opacity="0.3" stroke-linecap="round" stroke-linejoin="round"/>
</svg>
